<svg width="36" height="36" viewBox="0 0 36 36" fill="none" xmlns="http://www.w3.org/2000/svg">
<path d="M31.5067 3.91602L19.8008 12.6465L21.9655 7.49564L31.5067 3.91602Z" fill="#E2761B"/>
<path d="M4.48334 3.91602L16.0951 12.7292L14.0363 7.49564L4.48334 3.91602ZM27.2951 24.1533L24.1775 28.9497L30.8481 30.7927L32.7657 24.2596L27.2951 24.1533ZM3.24805 24.2596L5.15393 30.7927L11.8245 28.9497L8.70687 24.1533L3.24805 24.2596Z" fill="#E4761B"/>
<path d="M11.4467 16.0487L9.58789 18.8723L16.2114 19.1676L15.9761 12.0202L11.4467 16.0487ZM24.5408 16.0487L19.9526 11.9375L19.7997 19.1676L26.4114 18.8723L24.5408 16.0487ZM11.8232 28.9496L15.7997 27.0003L12.3644 24.3067L11.8232 28.9496ZM20.1879 27.0003L24.1761 28.9496L23.6232 24.3067L20.1879 27.0003Z" fill="#E4761B"/>
<path d="M24.1772 28.9493L20.1889 27L20.5066 29.6109L20.4713 30.7096L24.1772 28.9493ZM11.8242 28.9493L15.5301 30.7096L15.5066 29.6109L15.8007 27L11.8242 28.9493Z" fill="#D7C1B3"/>
<path d="M15.5891 22.582L12.2715 21.6014L14.6127 20.5264L15.5891 22.582ZM20.4009 22.582L21.3774 20.5264L23.7303 21.6014L20.4009 22.582Z" fill="#233447"/>
<path d="M11.8227 28.9494L12.3874 24.1529L8.70508 24.2592L11.8227 28.9494ZM23.611 24.1529L24.1757 28.9494L27.2933 24.2592L23.611 24.1529ZM26.411 18.8721L19.7992 19.1674L20.411 22.5816L21.3874 20.526L23.7404 21.6011L26.411 18.8721ZM12.2698 21.6011L14.6227 20.526L15.5874 22.5816L16.211 19.1674L9.58743 18.8721L12.2698 21.6011Z" fill="#CD6116"/>
<path d="M9.58789 18.8721L12.3644 24.3065L12.2702 21.6011L9.58789 18.8721ZM23.7408 21.6011L23.6232 24.3065L26.4114 18.8721L23.7408 21.6011ZM16.2114 19.1674L15.5879 22.5816L16.3644 26.6102L16.5408 21.3057L16.2114 19.1674ZM19.7997 19.1674L19.482 21.2939L19.6232 26.6102L20.4114 22.5816L19.7997 19.1674Z" fill="#E4751F"/>
<path d="M20.4127 22.5821L19.6244 26.6107L20.1891 27.0005L23.6244 24.307L23.7421 21.6016L20.4127 22.5821ZM12.2715 21.6016L12.3656 24.307L15.8009 27.0005L16.3656 26.6107L15.5891 22.5821L12.2715 21.6016Z" fill="#F6851B"/>
<path d="M20.4713 30.7105L20.5066 29.6118L20.2125 29.3519H15.7772L15.5066 29.6118L15.5301 30.7105L11.8242 28.9502L13.1183 30.0134L15.7419 31.8446H20.2477L22.883 30.0134L24.1772 28.9502L20.4713 30.7105Z" fill="#C0AD9E"/>
<path d="M20.1882 27.0002L19.6235 26.6104H16.3647L15.8 27.0002L15.5059 29.6111L15.7764 29.3512H20.2117L20.5059 29.6111L20.1882 27.0002Z" fill="#161616"/>
<path d="M32 13.2136L33 8.3935L31.5059 3.91602L20.1882 12.3512L24.5412 16.0489L30.6941 17.8565L32.0588 16.2616L31.4706 15.8363L32.4118 14.9739L31.6824 14.4068L32.6235 13.6861L32 13.2136ZM3 8.3935L4 13.2136L3.36471 13.6861L4.30588 14.4068L3.58824 14.9739L4.52941 15.8363L3.94118 16.2616L5.29412 17.8565L11.4471 16.0489L15.8 12.3512L4.48235 3.91602L3 8.3935Z" fill="#763D16"/>
<path d="M30.6932 17.8569L24.5402 16.0494L26.4108 18.8729L23.6226 24.3073L27.2932 24.2601H32.7637L30.6932 17.8569ZM11.4461 16.0494L5.29315 17.8569L3.24609 24.2601H8.70492L12.3637 24.3073L9.58727 18.8729L11.4461 16.0494ZM19.799 19.1683L20.1873 12.3516L21.9755 7.49609H14.0343L15.799 12.3516L16.2108 19.1683L16.352 21.3184L16.3637 26.611H19.6226L19.6461 21.3184L19.799 19.1683Z" fill="#F6851B"/>
</svg>
